<?xml version="1.0" standalone="no"?>
<!DOCTYPE svg PUBLIC "-//W3C//DTD SVG 20010904//EN"
 "http://www.w3.org/TR/2001/REC-SVG-20010904/DTD/svg10.dtd">
<svg version="1.0" xmlns="http://www.w3.org/2000/svg"
 width="500.000000pt" height="500.000000pt" viewBox="0 0 500.000000 500.000000"
 preserveAspectRatio="xMidYMid meet">

<g transform="translate(0.000000,500.000000) scale(0.100000,-0.100000)"
fill="#000000" stroke="none">
<path d="M1366 3740 c-16 -5 -40 -19 -53 -32 -81 -76 -68 -199 27 -250 34 -17
79 -18 1167 -16 1125 3 1132 3 1159 24 51 38 69 71 69 129 0 61 -21 98 -76
130 -33 20 -54 20 -1149 22 -613 1 -1128 -2 -1144 -7z"/>
<path d="M1340 2787 c-108 -57 -108 -209 1 -265 l44 -22 1127 2 c1120 3 1127
3 1154 24 51 38 69 71 69 129 0 58 -18 91 -69 129 -27 21 -34 21 -1155 24
l-1127 2 -44 -23z"/>
<path d="M1342 1853 c-47 -23 -75 -67 -80 -127 -4 -57 18 -101 71 -140 l28
-21 1132 0 c1114 0 1133 0 1166 20 55 32 76 69 76 130 0 58 -18 91 -69 129
-27 21 -34 21 -1159 23 -1028 2 -1135 1 -1165 -14z"/>
</g>
</svg>
