<?xml version="1.0" standalone="no"?>
<!DOCTYPE svg PUBLIC "-//W3C//DTD SVG 20010904//EN"
 "http://www.w3.org/TR/2001/REC-SVG-20010904/DTD/svg10.dtd">
<svg version="1.0" xmlns="http://www.w3.org/2000/svg"
 width="500.000000pt" height="500.000000pt" viewBox="0 0 500.000000 500.000000"
 preserveAspectRatio="xMidYMid meet">

<g transform="translate(0.000000,500.000000) scale(0.100000,-0.100000)"
fill="#000000" stroke="none">
<path d="M2210 4978 c-186 -19 -467 -95 -698 -190 -548 -225 -1041 -711 -1287
-1269 -98 -223 -183 -553 -206 -801 -15 -159 3 -495 36 -678 41 -227 146 -522
262 -740 226 -425 610 -797 1048 -1017 321 -162 650 -252 986 -271 312 -18
617 19 899 110 105 34 400 162 491 213 381 216 756 601 953 978 55 104 61 164
24 237 -49 97 -174 138 -268 88 -47 -25 -69 -54 -150 -195 -54 -94 -194 -282
-283 -379 -130 -141 -371 -323 -548 -414 -314 -161 -621 -234 -979 -234 -209
1 -348 19 -537 69 -484 128 -903 433 -1195 869 -169 252 -264 494 -320 806
-29 167 -32 478 -4 650 57 360 178 648 395 938 387 515 956 815 1596 839 180
6 315 -5 501 -42 575 -116 1079 -482 1387 -1008 89 -153 117 -183 183 -203 49
-14 59 -14 107 0 88 26 147 106 147 201 0 53 -65 185 -165 335 -417 624 -1075
1026 -1818 1110 -102 12 -428 10 -557 -2z"/>
</g>
</svg>
