<?xml version="1.0" standalone="no"?>
<!DOCTYPE svg PUBLIC "-//W3C//DTD SVG 20010904//EN"
 "http://www.w3.org/TR/2001/REC-SVG-20010904/DTD/svg10.dtd">
<svg version="1.0" xmlns="http://www.w3.org/2000/svg"
 width="202.000000pt" height="249.000000pt" viewBox="0 0 202.000000 249.000000"
 preserveAspectRatio="xMidYMid meet">

<g transform="translate(0.000000,249.000000) scale(0.100000,-0.100000)"
fill="#000000" stroke="none">
<path d="M746 2376 c-100 -37 -162 -129 -173 -258 l-6 -78 -258 0 -259 0 0
-85 0 -85 85 0 85 0 1 -27 c1 -16 2 -365 3 -778 l2 -750 23 -47 c13 -26 41
-64 63 -84 80 -72 47 -69 698 -69 651 0 617 -3 698 70 23 20 51 57 64 83 l23
47 3 778 3 777 84 0 85 0 0 85 0 85 -259 0 -258 0 -6 78 c-8 121 -46 187 -136
240 l-46 27 -240 2 c-187 2 -249 0 -279 -11z m493 -182 c29 -24 31 -31 31 -90
l0 -64 -260 0 -260 0 0 58 c0 62 17 97 54 112 11 5 107 9 213 9 l191 1 31 -26z
m381 -1089 l0 -766 -25 -24 -24 -25 -561 0 -561 0 -24 25 -25 24 0 766 0 765
610 0 610 0 0 -765z"/>
<path d="M572 1078 l3 -613 88 -3 87 -3 0 616 0 615 -90 0 -90 0 2 -612z"/>
<path d="M922 1078 l3 -613 85 0 85 0 3 613 2 612 -90 0 -90 0 2 -612z"/>
<path d="M1272 1078 l3 -613 85 0 85 0 3 613 2 612 -90 0 -90 0 2 -612z"/>
</g>
</svg>
